# xmcd
#
# Track frame offsets: 
#        150
#        34237
#        64859
#        93847
#        113099
#        133122
#        157749
#        180087
#        204480
#        227073
#        253178
#        277904
#
# Disc length: 3949 seconds
#
# Revision: 1
# Processed by: cddbd v1.5.2PL0 Copyright (c) Steve Scherf et al.
# Submitted via: ExactAudioCopy v1.0b3
#
DISCID=970f6b0c
DTITLE=Truong Vu - Nhung Tinh Khuc Bat Hu 1
DYEAR=2000
DGENRE=
TTITLE0=Han Mac Tu
TTITLE1=Tuy ca
TTITLE2=Ti Ngo cua toi
TTITLE3=Vong nhan cuoi
TTITLE4=Sau lan hen cuoi
TTITLE5=Dap vo cay dan
TTITLE6=Han Do Ban
TTITLE7=Con me tinh ai
TTITLE8=Chuyen tau hoang hon
TTITLE9=Thoi doi
TTITLE10=Chung minh ba dua
TTITLE11=La thu cuoi cung
EXTD=
EXTT0=
EXTT1=
EXTT2=
EXTT3=
EXTT4=
EXTT5=
EXTT6=
EXTT7=
EXTT8=
EXTT9=
EXTT10=
EXTT11=
PLAYORDER=
